<?xml version="1.0" encoding="UTF-8" standalone="no"?>
<!-- Generator: Adobe Illustrator 19.0.0, SVG Export Plug-In . SVG Version: 6.00 Build 0)  -->

<svg
   xmlns:dc="http://purl.org/dc/elements/1.1/"
   xmlns:cc="http://creativecommons.org/ns#"
   xmlns:rdf="http://www.w3.org/1999/02/22-rdf-syntax-ns#"
   xmlns:svg="http://www.w3.org/2000/svg"
   xmlns="http://www.w3.org/2000/svg"
   xmlns:sodipodi="http://sodipodi.sourceforge.net/DTD/sodipodi-0.dtd"
   xmlns:inkscape="http://www.inkscape.org/namespaces/inkscape"
   version="1.1"
   id="Capa_1"
   x="0px"
   y="0px"
   viewBox="0 0 98 100.94199"
   xml:space="preserve"
   sodipodi:docname="cat.svg"
   width="98"
   height="100.94199"
   inkscape:version="0.92.3 (2405546, 2018-03-11)"
   inkscape:export-filename="/mnt/storage2/felipefontoura/Desenvolvimento/io-radarpet/src/assets/imgs/markers/cat.png"
   inkscape:export-xdpi="96"
   inkscape:export-ydpi="96"><metadata
   id="metadata83"><rdf:RDF><cc:Work
       rdf:about=""><dc:format>image/svg+xml</dc:format><dc:type
         rdf:resource="http://purl.org/dc/dcmitype/StillImage" /><dc:title></dc:title></cc:Work></rdf:RDF></metadata><defs
   id="defs81" /><sodipodi:namedview
   pagecolor="#ffffff"
   bordercolor="#666666"
   borderopacity="1"
   objecttolerance="10"
   gridtolerance="10"
   guidetolerance="10"
   inkscape:pageopacity="0"
   inkscape:pageshadow="2"
   inkscape:window-width="1920"
   inkscape:window-height="1025"
   id="namedview79"
   showgrid="false"
   fit-margin-top="0"
   fit-margin-left="0"
   fit-margin-right="0"
   fit-margin-bottom="0"
   inkscape:zoom="2.6074563"
   inkscape:cx="22.17438"
   inkscape:cy="115.49637"
   inkscape:window-x="0"
   inkscape:window-y="27"
   inkscape:window-maximized="1"
   inkscape:current-layer="Capa_1" />
<path
   style="fill:#ffc850;stroke-width:0.19715235"
   d="m 86.139426,0.73753886 c 2.134766,-1.73455 5.326662,-0.2153 5.326662,2.53518004 V 47.042509 L 55.533102,25.809399 Z"
   id="path2"
   inkscape:connector-curvature="0" />
<path
   style="fill:#ebaf4b;stroke-width:0.19715235"
   d="m 88.199471,45.112189 -21.878587,-12.92807 18.2291,-20.55135 c 1.27459,-1.43685 3.649487,-0.53547 3.649487,1.38538 z"
   id="path4"
   inkscape:connector-curvature="0" />
<path
   style="fill:#ffc850;stroke-width:0.19715235"
   d="m 11.860308,0.73753886 c -2.1349625,-1.73455 -5.3266615,-0.2153 -5.3266615,2.53518004 V 47.042509 L 42.466633,25.809399 Z"
   id="path6"
   inkscape:connector-curvature="0" />
<path
   style="fill:#ebaf4b;stroke-width:0.19715235"
   d="M 9.8002635,45.112189 31.678851,32.184119 13.44975,11.632769 c -1.27459,-1.43685 -3.6494865,-0.53547 -3.6494865,1.38538 0,0 0,32.09404 0,32.09404 z"
   id="path8"
   inkscape:connector-curvature="0" />
<ellipse
   style="fill:#ffdc64;stroke-width:0.19715235"
   cx="48.999866"
   cy="57.659153"
   rx="45.733429"
   ry="43.282825"
   id="ellipse10" />
<path
   style="fill:#ff8087;stroke-width:0.19715235"
   d="m 55.533102,84.608899 v 3.26662 c 0,3.60828 -2.924953,6.53324 -6.533235,6.53324 v 0 c -3.608282,0 -6.533234,-2.92496 -6.533234,-6.53324 v -3.26662 l 6.533234,-3.26661 z"
   id="path12"
   inkscape:connector-curvature="0" />
<path
   style="fill:#5d5360;stroke-width:0.19715235"
   d="m 52.606572,67.793189 h -7.21341 c -1.557306,0 -2.419651,1.80532 -1.440592,3.01643 l 3.606902,4.46235 c 0.741293,0.91695 2.139497,0.91695 2.880987,0 l 3.606903,-4.46235 c 0.978861,-1.21111 0.116714,-3.01643 -1.44079,-3.01643 z"
   id="path14"
   inkscape:connector-curvature="0" />
<g
   id="g20"
   transform="matrix(0.19715235,0,0,0.19715235,-1.470936,-1.1144493e-5)">
	<path
   style="fill:#e1a546"
   d="m 479.673,437.439 c -1.286,0 -2.593,-0.299 -3.815,-0.934 -50.092,-26.047 -128.491,-41.524 -129.28,-41.678 -4.49,-0.874 -7.419,-5.226 -6.545,-9.717 0.878,-4.494 5.186,-7.427 9.717,-6.545 3.301,0.643 81.515,16.076 133.754,43.239 4.057,2.112 5.639,7.111 3.527,11.173 -1.476,2.836 -4.364,4.462 -7.358,4.462 z"
   id="path16"
   inkscape:connector-curvature="0" />
	<path
   style="fill:#e1a546"
   d="m 496.255,379.451 c -0.712,0 -1.436,-0.093 -2.156,-0.287 -46.435,-12.483 -130.87,-10.113 -131.703,-10.077 -4.652,0.134 -8.398,-3.459 -8.531,-8.03 -0.138,-4.575 3.459,-8.394 8.03,-8.531 3.56,-0.113 87.736,-2.476 136.509,10.635 4.417,1.189 7.035,5.732 5.849,10.153 -0.996,3.698 -4.341,6.133 -7.998,6.137 z"
   id="path18"
   inkscape:connector-curvature="0" />
</g>
<path
   style="fill:#ffc850;stroke-width:0.19715235"
   d="m 60.433126,97.675369 c -25.257581,0 -45.732838,-19.3783 -45.732838,-43.28282 0,-17.55346 11.047234,-32.65514 26.914844,-39.44644 -21.744721,3.34212 -38.3481025,21.18895 -38.3481025,42.71305 0,23.90453 20.4752565,43.282831 45.7328375,43.282831 6.710475,0 13.076721,-1.379081 18.817995,-3.836391 -2.404865,0.36966 -4.869663,0.56977 -7.384736,0.56977 z"
   id="path22"
   inkscape:connector-curvature="0" />
<g
   id="g28"
   transform="matrix(0.19715235,0,0,0.19715235,-1.470936,-1.1144493e-5)">
	<path
   style="fill:#e1a546"
   d="m 32.324,437.439 c -2.993,0 -5.882,-1.622 -7.358,-4.462 -2.112,-4.061 -0.53,-9.061 3.527,-11.173 52.24,-27.163 130.453,-42.596 133.754,-43.239 4.494,-0.902 8.839,2.055 9.717,6.545 0.874,4.49 -2.055,8.843 -6.545,9.717 -0.789,0.154 -79.189,15.631 -129.28,41.678 -1.222,0.635 -2.528,0.934 -3.815,0.934 z"
   id="path24"
   inkscape:connector-curvature="0" />
	<path
   style="fill:#e1a546"
   d="m 15.743,379.451 c -3.657,0 -7.002,-2.439 -7.997,-6.137 -1.185,-4.421 1.432,-8.964 5.849,-10.153 48.777,-13.115 132.941,-10.736 136.509,-10.635 4.571,0.138 8.167,3.956 8.03,8.531 -0.138,4.571 -4.098,8.196 -8.531,8.03 -0.849,-0.028 -85.297,-2.407 -131.703,10.077 -0.721,0.194 -1.445,0.287 -2.157,0.287 z"
   id="path26"
   inkscape:connector-curvature="0" />
</g>
<path
   style="fill:#4b3f4e;stroke-width:0.19715235"
   d="m 30.216769,63.375789 v 0 c -3.144186,0 -5.71663,-2.57244 -5.71663,-5.71663 v -3.26661 c 0,-3.14419 2.572444,-5.71663 5.71663,-5.71663 v 0 c 3.144185,0 5.716629,2.57244 5.716629,5.71663 v 3.26661 c 0,3.14399 -2.572444,5.71663 -5.716629,5.71663 z"
   id="path30"
   inkscape:connector-curvature="0" />
<path
   style="fill:#5d5360;stroke-width:0.19715235"
   d="m 30.216769,48.675919 c -0.279562,0 -0.547689,0.0436 -0.816605,0.083 v 8.08364 c 0,1.80414 1.462476,3.26662 3.266617,3.26662 1.804141,0 3.266617,-1.46248 3.266617,-3.26662 v -2.45001 c 0,-3.14419 -2.572641,-5.71663 -5.716629,-5.71663 z"
   id="path32"
   inkscape:connector-curvature="0" />
<circle
   style="fill:#ffffff;stroke-width:0.19715235"
   cx="30.217163"
   cy="52.759922"
   r="2.4500122"
   id="circle34" />
<path
   style="fill:#4b3f4e;stroke-width:0.19715235"
   d="m 67.782966,63.375789 v 0 c -3.144186,0 -5.71663,-2.57244 -5.71663,-5.71663 v -3.26661 c 0,-3.14419 2.572444,-5.71663 5.71663,-5.71663 v 0 c 3.144185,0 5.716629,2.57244 5.716629,5.71663 v 3.26661 c 0,3.14399 -2.572444,5.71663 -5.716629,5.71663 z"
   id="path36"
   inkscape:connector-curvature="0" />
<path
   style="fill:#5d5360;stroke-width:0.19715235"
   d="m 67.782966,48.675919 c -0.279562,0 -0.54769,0.0436 -0.816605,0.083 v 8.08364 c 0,1.80414 1.462476,3.26662 3.266617,3.26662 1.804141,0 3.266617,-1.46248 3.266617,-3.26662 v -2.45001 c 0,-3.14419 -2.572444,-5.71663 -5.716629,-5.71663 z"
   id="path38"
   inkscape:connector-curvature="0" />
<circle
   style="fill:#ffffff;stroke-width:0.19715235"
   cx="67.782578"
   cy="52.759922"
   r="2.4500122"
   id="circle40" />
<path
   style="fill:#4b3f4e;stroke-width:0.19715235"
   d="m 50.263417,75.341759 -3.606903,-7.13987 c -0.06545,-0.12973 -0.102125,-0.27168 -0.15161,-0.4089 h -1.111742 c -1.557306,0 -2.419651,1.80533 -1.440789,3.01643 l 3.606902,4.46235 c 0.699891,0.8655 1.967778,0.88423 2.733123,0.11573 -0.0087,-0.0168 -0.02011,-0.0282 -0.02898,-0.0457 z"
   id="path42"
   inkscape:connector-curvature="0" />
<path
   style="fill:#e6646e;stroke-width:0.19715235"
   d="m 48.999867,81.342289 -6.533234,3.26661 v 3.26662 c 0,0.51831 0.07551,1.01612 0.189463,1.49954 1.643659,-0.20385 3.23113,-0.67998 4.710364,-1.41023 v 1.5439 c 0,0.90197 0.731238,1.63341 1.633407,1.63341 0.902169,0 1.633407,-0.73124 1.633407,-1.63341 v -1.5437 c 1.479432,0.73025 3.066902,1.20637 4.710364,1.41003 0.113954,-0.48342 0.189464,-0.98142 0.189464,-1.49954 v -3.26662 z"
   id="path44"
   inkscape:connector-curvature="0" />
<path
   style="fill:#ebaf4b;stroke-width:0.19715235"
   d="m 57.166509,86.242109 c -2.310428,0 -4.537067,-0.68668 -6.437616,-1.98591 -1.0177,-0.69536 -2.439563,-0.69536 -3.458841,0 -1.89976,1.29923 -4.126398,1.98591 -6.436826,1.98591 -2.811196,0 -5.518886,-1.03997 -7.624276,-2.92771 -0.671501,-0.60289 -0.727295,-1.63577 -0.125192,-2.30727 0.602103,-0.6715 1.632619,-0.7273 2.307274,-0.12519 2.742586,2.46105 7.034987,2.72996 10.03604,0.67702 2.137329,-1.45952 5.009247,-1.45952 7.144999,0 3.001841,2.05196 7.294834,1.78245 10.037617,-0.67624 0.670712,-0.60131 1.702608,-0.54709 2.306485,0.12598 0.602104,0.67151 0.545521,1.70439 -0.12598,2.30649 -2.105784,1.88773 -4.812489,2.92692 -7.623684,2.92692 z"
   id="path46"
   inkscape:connector-curvature="0" />
<g
   id="g48"
   transform="matrix(0.19715235,0,0,0.19715235,-1.470936,-1.1144493e-5)">
</g>
<g
   id="g50"
   transform="matrix(0.19715235,0,0,0.19715235,-1.470936,-1.1144493e-5)">
</g>
<g
   id="g52"
   transform="matrix(0.19715235,0,0,0.19715235,-1.470936,-1.1144493e-5)">
</g>
<g
   id="g54"
   transform="matrix(0.19715235,0,0,0.19715235,-1.470936,-1.1144493e-5)">
</g>
<g
   id="g56"
   transform="matrix(0.19715235,0,0,0.19715235,-1.470936,-1.1144493e-5)">
</g>
<g
   id="g58"
   transform="matrix(0.19715235,0,0,0.19715235,-1.470936,-1.1144493e-5)">
</g>
<g
   id="g60"
   transform="matrix(0.19715235,0,0,0.19715235,-1.470936,-1.1144493e-5)">
</g>
<g
   id="g62"
   transform="matrix(0.19715235,0,0,0.19715235,-1.470936,-1.1144493e-5)">
</g>
<g
   id="g64"
   transform="matrix(0.19715235,0,0,0.19715235,-1.470936,-1.1144493e-5)">
</g>
<g
   id="g66"
   transform="matrix(0.19715235,0,0,0.19715235,-1.470936,-1.1144493e-5)">
</g>
<g
   id="g68"
   transform="matrix(0.19715235,0,0,0.19715235,-1.470936,-1.1144493e-5)">
</g>
<g
   id="g70"
   transform="matrix(0.19715235,0,0,0.19715235,-1.470936,-1.1144493e-5)">
</g>
<g
   id="g72"
   transform="matrix(0.19715235,0,0,0.19715235,-1.470936,-1.1144493e-5)">
</g>
<g
   id="g74"
   transform="matrix(0.19715235,0,0,0.19715235,-1.470936,-1.1144493e-5)">
</g>
<g
   id="g76"
   transform="matrix(0.19715235,0,0,0.19715235,-1.470936,-1.1144493e-5)">
</g>
</svg>