<?xml version="1.0" encoding="UTF-8" standalone="no"?>
<!-- Generator: Adobe Illustrator 19.0.0, SVG Export Plug-In . SVG Version: 6.00 Build 0)  -->

<svg
   xmlns:dc="http://purl.org/dc/elements/1.1/"
   xmlns:cc="http://creativecommons.org/ns#"
   xmlns:rdf="http://www.w3.org/1999/02/22-rdf-syntax-ns#"
   xmlns:svg="http://www.w3.org/2000/svg"
   xmlns="http://www.w3.org/2000/svg"
   xmlns:sodipodi="http://sodipodi.sourceforge.net/DTD/sodipodi-0.dtd"
   xmlns:inkscape="http://www.inkscape.org/namespaces/inkscape"
   version="1.1"
   id="Capa_1"
   x="0px"
   y="0px"
   viewBox="0 0 98 86.935379"
   xml:space="preserve"
   sodipodi:docname="dog.svg"
   width="98"
   height="86.935379"
   inkscape:version="0.92.3 (2405546, 2018-03-11)"
   inkscape:export-filename="/mnt/storage2/felipefontoura/Desenvolvimento/io-radarpet/src/assets/imgs/markers/dog.png"
   inkscape:export-xdpi="96"
   inkscape:export-ydpi="96"><metadata
   id="metadata73"><rdf:RDF><cc:Work
       rdf:about=""><dc:format>image/svg+xml</dc:format><dc:type
         rdf:resource="http://purl.org/dc/dcmitype/StillImage" /><dc:title></dc:title></cc:Work></rdf:RDF></metadata><defs
   id="defs71" /><sodipodi:namedview
   pagecolor="#ffffff"
   bordercolor="#666666"
   borderopacity="1"
   objecttolerance="10"
   gridtolerance="10"
   guidetolerance="10"
   inkscape:pageopacity="0"
   inkscape:pageshadow="2"
   inkscape:window-width="1920"
   inkscape:window-height="1025"
   id="namedview69"
   showgrid="false"
   fit-margin-top="0"
   fit-margin-left="0"
   fit-margin-right="0"
   fit-margin-bottom="0"
   inkscape:zoom="5.2149125"
   inkscape:cx="26.336616"
   inkscape:cy="53.093592"
   inkscape:window-x="0"
   inkscape:window-y="27"
   inkscape:window-maximized="1"
   inkscape:current-layer="Capa_1" />
<path
   style="fill:#f5dcb4;stroke-width:0.19140625"
   d="M 83.774113,3.16127 H 67.967594 C 62.237848,5.43345 60.967676,1.58063 49,1.58063 c -11.967676,0 -13.237848,3.85282 -18.967785,1.58064 H 14.225887 l -2.107574,39.71392 c 1.317257,15.6088 10.998585,24.10475 18.638566,27.20017 H 67.243313 C 74.883102,66.97994 84.564621,58.48399 85.881879,42.87519 Z"
   id="path2"
   inkscape:connector-curvature="0" />
<path
   style="fill:#965a50;stroke-width:0.19140625"
   d="M 67.967785,3.16127 C 85.76493,8.48829 76.076328,35.95968 87.53582,47.83434 89.180957,49.539 92.087652,48.7818 92.774227,46.51459 93.681492,43.51889 94.587609,38.77967 94.44348,32.0081 94.245949,22.72184 98,22.12924 98,22.12924 98,22.12924 93.258102,0 79.032215,0 74.290316,0 67.967785,3.16127 67.967785,3.16127 Z"
   id="path4"
   inkscape:connector-curvature="0" />
<path
   style="fill:#4b3f4e;stroke-width:0.19140625"
   d="m 32.403164,44.2581 v 0 c -3.042785,0 -5.532215,-2.48943 -5.532215,-5.53221 v -3.16127 c 0,-3.04278 2.48943,-5.53221 5.532215,-5.53221 v 0 c 3.042785,0 5.532215,2.48943 5.532215,5.53221 v 3.16127 c 1.91e-4,3.04297 -2.48943,5.53221 -5.532215,5.53221 z"
   id="path6"
   inkscape:connector-curvature="0" />
<path
   style="fill:#5d5360;stroke-width:0.19140625"
   d="m 32.403164,30.03222 c -0.270457,0 -0.530004,0.0423 -0.790316,0.0802 v 7.82296 c 0,1.74582 1.415449,3.16127 3.161265,3.16127 1.746008,0 3.161266,-1.41545 3.161266,-3.16127 v -2.37076 c 1.91e-4,-3.04259 -2.48943,-5.5324 -5.532215,-5.5324 z"
   id="path8"
   inkscape:connector-curvature="0" />
<circle
   style="fill:#ffffff;stroke-width:0.19140625"
   cx="32.403164"
   cy="33.983788"
   r="2.3709493"
   id="circle10" />
<path
   style="fill:#4b3f4e;stroke-width:0.19140625"
   d="m 65.596836,44.2581 v 0 c -3.042785,0 -5.532215,-2.48943 -5.532215,-5.53221 v -3.16127 c 0,-3.04278 2.48943,-5.53221 5.532215,-5.53221 v 0 c 3.042785,0 5.532215,2.48943 5.532215,5.53221 v 3.16127 c 0,3.04297 -2.489621,5.53221 -5.532215,5.53221 z"
   id="path12"
   inkscape:connector-curvature="0" />
<path
   style="fill:#5d5360;stroke-width:0.19140625"
   d="m 65.596836,30.03222 c -0.270457,0 -0.530004,0.0423 -0.790316,0.0802 v 7.82296 c 0,1.74582 1.415449,3.16127 3.161265,3.16127 1.746008,0 3.161266,-1.41545 3.161266,-3.16127 v -2.37076 c 0,-3.04259 -2.489621,-5.5324 -5.532215,-5.5324 z"
   id="path14"
   inkscape:connector-curvature="0" />
<circle
   style="fill:#ffffff;stroke-width:0.19140625"
   cx="65.596832"
   cy="33.983788"
   r="2.3709493"
   id="circle16" />
<path
   style="fill:#824641;stroke-width:0.19140625"
   d="m 87.53582,47.83453 c 1.645137,1.70466 4.551832,0.94746 5.238407,-1.31994 0.520242,-1.71806 1.033402,-4.03101 1.355156,-6.95053 C 91.022094,38.0152 88.369586,33.07347 86.737848,24.69772 83.774113,9.48399 79.625,0.98804 67.967785,3.16127 85.76493,8.48829 76.076328,35.95988 87.53582,47.83453 Z"
   id="path18"
   inkscape:connector-curvature="0" />
<path
   style="fill:#e7c9a5;stroke-width:0.19140625"
   d="m 30.756879,70.07536 h 7.491832 c 0,0 -13.155734,-8.82517 -15.329152,-24.43416 C 18.691586,15.27594 26.739453,6.19084 33.700324,3.87253 32.597633,3.90983 31.452258,3.72438 30.032406,3.16146 H 14.225887 l -2.107574,39.71373 c 1.317257,15.6088 10.998585,24.10475 18.638566,27.20017 z"
   id="path20"
   inkscape:connector-curvature="0" />
<path
   style="fill:#965a50;stroke-width:0.19140625"
   d="M 30.032215,3.16127 C 12.23507,8.48829 21.923863,35.95988 10.46418,47.83434 8.819043,49.539 5.9123477,48.7818 5.2257734,46.51459 4.3185078,43.51889 3.4123906,38.77967 3.5565195,32.0081 3.7540508,22.72184 0,22.12924 0,22.12924 0,22.12924 4.7418984,0 18.967785,0 c 4.741899,0 11.06443,3.16127 11.06443,3.16127 z"
   id="path22"
   inkscape:connector-curvature="0" />
<path
   style="fill:#824641;stroke-width:0.19140625"
   d="M 29.503168,2.90957 C 27.899184,2.16538 22.89659,0 18.967785,0 4.7418984,0 0,22.12924 0,22.12924 c 0,0 3.7540508,0.59279 3.5565195,9.87905 -0.00268,0.12404 9.571e-4,0.23563 -9.57e-4,0.35832 C 12.651379,-2.14145 26.628246,1.69777 29.503168,2.90957 Z"
   id="path24"
   inkscape:connector-curvature="0" />
<ellipse
   style="fill:#bc8e78;stroke-width:0.19140625"
   cx="49"
   cy="71.129814"
   rx="17.387342"
   ry="12.644297"
   id="ellipse26" />
<path
   style="fill:#ff8087;stroke-width:0.19140625"
   d="m 41.096836,71.12905 v 7.90317 c 0,4.36482 3.538336,7.90316 7.903164,7.90316 4.364828,0 7.903164,-3.53834 7.903164,-7.90316 v -7.90317 z"
   id="path28"
   inkscape:connector-curvature="0" />
<path
   style="fill:#e6646e;stroke-width:0.19140625"
   d="m 41.096836,77.30229 c 2.285582,-0.28635 4.442156,-0.98173 6.322531,-2.03312 v 2.18241 c 0,0.87282 0.707821,1.58064 1.580633,1.58064 0.872812,0 1.580633,-0.70782 1.580633,-1.58064 v -2.20251 c 1.862191,1.06269 4.024508,1.76572 6.322531,2.05379 v -6.174 H 41.096836 Z"
   id="path30"
   inkscape:connector-curvature="0" />
<path
   style="fill:#d4af91;stroke-width:0.19140625"
   d="M 59.274113,56.90336 H 38.725887 c -6.547242,0 -11.854746,3.89224 -11.854746,8.69348 0,4.80123 5.307695,8.69348 11.854746,8.69348 3.296972,0 6.274679,-0.98938 8.420918,-2.5836 0.543402,-0.40349 1.198586,-0.60523 1.852621,-0.60523 0.655183,0 1.310367,0.20155 1.853769,0.60523 2.146239,1.59422 5.123946,2.5836 8.420918,2.5836 6.547242,0 11.854746,-3.89225 11.854746,-8.69348 1.92e-4,-4.80124 -5.307504,-8.69348 -11.854746,-8.69348 z"
   id="path32"
   inkscape:connector-curvature="0" />
<path
   style="fill:#5d5360;stroke-width:0.19140625"
   d="m 49,50.58063 c 5.237832,0 9.483797,2.83071 9.483797,6.32254 0,3.3676 -3.985844,5.14078 -6.862488,6.45192 -1.667532,0.76007 -3.575469,0.76007 -5.243,0 C 43.501664,62.04395 39.51582,60.27077 39.51582,56.90317 39.516203,53.41153 43.762168,50.58063 49,50.58063 Z"
   id="path34"
   inkscape:connector-curvature="0" />
<path
   style="fill:#4b3f4e;stroke-width:0.19140625"
   d="m 44.208719,55.17438 c -0.221074,-1.98928 1.180211,-4.11657 1.180211,-4.11657 -3.445887,0.94727 -5.872727,3.20625 -5.872727,5.84536 0,3.36741 3.985844,5.14059 6.862488,6.45192 1.66734,0.75988 3.575469,0.75988 5.243,0 0.618625,-0.28194 1.288547,-0.58743 1.959043,-0.92335 -3.889183,-0.68772 -8.92757,-3.2562 -9.372015,-7.25736 z"
   id="path36"
   inkscape:connector-curvature="0" />
<g
   id="g38"
   transform="matrix(0.19140625,0,0,0.19140625,0,-5.53221)">
</g>
<g
   id="g40"
   transform="matrix(0.19140625,0,0,0.19140625,0,-5.53221)">
</g>
<g
   id="g42"
   transform="matrix(0.19140625,0,0,0.19140625,0,-5.53221)">
</g>
<g
   id="g44"
   transform="matrix(0.19140625,0,0,0.19140625,0,-5.53221)">
</g>
<g
   id="g46"
   transform="matrix(0.19140625,0,0,0.19140625,0,-5.53221)">
</g>
<g
   id="g48"
   transform="matrix(0.19140625,0,0,0.19140625,0,-5.53221)">
</g>
<g
   id="g50"
   transform="matrix(0.19140625,0,0,0.19140625,0,-5.53221)">
</g>
<g
   id="g52"
   transform="matrix(0.19140625,0,0,0.19140625,0,-5.53221)">
</g>
<g
   id="g54"
   transform="matrix(0.19140625,0,0,0.19140625,0,-5.53221)">
</g>
<g
   id="g56"
   transform="matrix(0.19140625,0,0,0.19140625,0,-5.53221)">
</g>
<g
   id="g58"
   transform="matrix(0.19140625,0,0,0.19140625,0,-5.53221)">
</g>
<g
   id="g60"
   transform="matrix(0.19140625,0,0,0.19140625,0,-5.53221)">
</g>
<g
   id="g62"
   transform="matrix(0.19140625,0,0,0.19140625,0,-5.53221)">
</g>
<g
   id="g64"
   transform="matrix(0.19140625,0,0,0.19140625,0,-5.53221)">
</g>
<g
   id="g66"
   transform="matrix(0.19140625,0,0,0.19140625,0,-5.53221)">
</g>
</svg>